<svg xmlns="http://www.w3.org/2000/svg" viewBox="0 0 512 512"><defs><style>.cls-1{fill:#c27135;}.cls-2{fill:#96663e;}.cls-3{fill:#689ec0;}.cls-4{fill:#7bb9ec;}.cls-5{fill:#d1d1d1;}.cls-6{fill:#fff;}.cls-7{fill:#5b89a0;}.cls-8{fill:#db3a46;}.cls-9{fill:#9b112e;}.cls-10{fill:#8b9ed9;}.cls-11{fill:#7c8db8;}.cls-12{fill:#aadee6;}.cls-13{fill:#f1ce34;}.cls-14{fill:#f0d966;}.cls-15{fill:#f0c788;}</style></defs><title>Food</title><g id="BULINE"><circle class="cls-1" cx="256" cy="256" r="256"/></g><g id="Icons"><path class="cls-2" d="M469.44,397.4a256.06,256.06,0,0,1-426.88,0Z"/><polygon class="cls-3" points="306.77 151.2 306.77 400.79 241.61 400.79 241.61 151.2 274.18 109.69 306.77 151.2"/><path class="cls-4" d="M426.45,157.79V378.31A22.48,22.48,0,0,1,404,400.79H306.77V151.2l-32.59-41.51H382.26l39.38,37a15.18,15.18,0,0,1,4.45,7.86A14.78,14.78,0,0,1,426.45,157.79Z"/><polygon class="cls-5" points="306.77 271.31 306.77 353.54 241.61 288.38 241.61 206.16 306.77 271.31"/><path class="cls-6" d="M426.45,157.79v78.62L307.74,355.12l-1-1V273.86L426.09,154.54A14.78,14.78,0,0,1,426.45,157.79Z"/><path class="cls-5" d="M286.1,90.67h84.24a11.92,11.92,0,0,1,11.92,11.92v7.1a0,0,0,0,1,0,0H274.18a0,0,0,0,1,0,0v-7.1A11.92,11.92,0,0,1,286.1,90.67Z"/><polygon class="cls-7" points="241.61 151.2 306.77 151.2 274.18 109.69 241.61 151.2"/><path class="cls-8" d="M383.21,246a155.81,155.81,0,0,1-311.62,0Z"/><path class="cls-9" d="M226.29,217.51c-80.67,0-147,11.22-155,25.59a5.85,5.85,0,0,0-.81,2.91A155.92,155.92,0,0,0,272.79,394.76,155.86,155.86,0,0,1,163.48,246H115.3c28.26-5.25,67.54-8.5,111-8.5,66.81,0,123.8,7.69,145.94,18.5l.3-.14.31-.16.91-.48.33-.18c.29-.15.56-.3.83-.46l.31-.18.77-.48.28-.17.76-.52.2-.14a17.92,17.92,0,0,0,2.4-2l.14-.15c.17-.18.33-.35.48-.53s.1-.13.16-.19.25-.33.37-.49l.14-.21q.16-.24.3-.48a2.39,2.39,0,0,0,.12-.22,4.44,4.44,0,0,0,.24-.49l.09-.2c.07-.18.13-.35.18-.52l.06-.18a6,6,0,0,0,.12-.61s0-.06,0-.09c0-.24,1.16-.48,1.16-.72C383.21,230.27,312.34,217.51,226.29,217.51Z"/><path class="cls-10" d="M129.33,159.06,82.68,26.91A18,18,0,0,0,59.23,16.13h0A18,18,0,0,0,49.15,39.88l54.33,128.87A33.82,33.82,0,0,0,95.71,205l11.59,29.95A33.81,33.81,0,0,0,151,254.27h0a33.8,33.8,0,0,0,19.33-43.72l-11.59-30A33.8,33.8,0,0,0,129.33,159.06Z"/><path class="cls-11" d="M159.73,249.31a33.81,33.81,0,0,1-52.43-14.37L95.71,205a33.82,33.82,0,0,1,7.77-36.25L49.15,39.89c-.08-.17-.14-.34-.21-.5a18,18,0,0,1,20.6-24.07,18,18,0,0,0-2.12,16.9c.07.17.13.34.21.51L122,161.6a33.81,33.81,0,0,0-7.76,36.24l11.59,30A33.81,33.81,0,0,0,159.73,249.31Z"/><path class="cls-1" d="M73,251.11l-.24-.26Z"/><path class="cls-1" d="M73.67,251.77l-.19-.17Z"/><path class="cls-1" d="M74.68,252.6l-.23-.17Z"/><path class="cls-1" d="M71.38,249.08l-.16-.29Z"/><path class="cls-1" d="M72.36,250.44l-.23-.28Z"/><path class="cls-1" d="M71,248.38l-.12-.28Z"/><path class="cls-1" d="M75.67,253.32l-.35-.24Z"/><path class="cls-1" d="M71.83,249.76a3,3,0,0,1-.2-.29A3,3,0,0,0,71.83,249.76Z"/><path class="cls-1" d="M78.89,255.27l-.46-.25Z"/><path class="cls-1" d="M376.27,253.76l-.28.17Z"/><path class="cls-1" d="M374.08,255.05l-.33.18Z"/><path class="cls-1" d="M375.22,254.41l-.31.18Z"/><path class="cls-1" d="M377.23,253.1l-.2.14Z"/><path class="cls-1" d="M372.84,255.71l-.31.16Z"/><path class="cls-1" d="M76.67,254l-.4-.26Z"/><path class="cls-1" d="M77.75,254.63l-.44-.26Z"/><path class="cls-1" d="M70.75,247.68c0-.09-.06-.18-.08-.27C70.69,247.5,70.73,247.59,70.75,247.68Z"/><path class="cls-1" d="M80.11,255.89l-.46-.23Z"/><path class="cls-1" d="M381.34,248.82a2.39,2.39,0,0,1-.12.22A2.39,2.39,0,0,0,381.34,248.82Z"/><path class="cls-1" d="M382.05,246.73s0,.06,0,.09S382,246.76,382.05,246.73Z"/><path class="cls-1" d="M380.41,250.22c-.06.06-.11.13-.16.19S380.35,250.28,380.41,250.22Z"/><path class="cls-1" d="M381.67,248.13l-.09.2Z"/><path class="cls-1" d="M381.91,247.43l-.06.18Z"/><path class="cls-1" d="M70.57,246.94c0-.08,0-.15,0-.23C70.54,246.79,70.56,246.86,70.57,246.94Z"/><path class="cls-1" d="M380.92,249.52l-.14.21Z"/><path class="cls-1" d="M379.77,250.94l-.14.15Z"/><path class="cls-12" d="M70.67,247.41c0-.16-.07-.31-.1-.47C70.6,247.1,70.63,247.25,70.67,247.41Z"/><path class="cls-12" d="M380.25,250.41c-.15.18-.31.35-.48.53C379.94,250.76,380.1,250.59,380.25,250.41Z"/><path class="cls-12" d="M78.43,255l-.68-.39Z"/><path class="cls-12" d="M372.24,256l.29-.14-.3.14Z"/><path class="cls-12" d="M380.78,249.73c-.12.16-.24.33-.37.49C380.54,250.06,380.66,249.89,380.78,249.73Z"/><path class="cls-12" d="M79.65,255.66l-.76-.39Z"/><path class="cls-12" d="M376,253.93l-.77.48Z"/><path class="cls-12" d="M382.1,246a5.81,5.81,0,0,1-.05.72,5.81,5.81,0,0,0,.05-.72c0-15.74-69.76-28.5-155.81-28.5h0C312.34,217.51,382.1,230.27,382.1,246Z"/><path class="cls-12" d="M379.63,251.09a17.92,17.92,0,0,1-2.4,2A17.92,17.92,0,0,0,379.63,251.09Z"/><path class="cls-12" d="M377,253.24l-.76.52Z"/><path class="cls-12" d="M373.75,255.23l-.91.48Z"/><path class="cls-12" d="M374.91,254.59c-.27.16-.54.31-.83.46C374.37,254.9,374.64,254.75,374.91,254.59Z"/><path class="cls-12" d="M80.34,256h0l-.24-.12Z"/><path class="cls-12" d="M72.73,250.85a4.72,4.72,0,0,1-.37-.41A4.72,4.72,0,0,0,72.73,250.85Z"/><path class="cls-12" d="M382,246.82a6,6,0,0,1-.12.61A6,6,0,0,0,382,246.82Z"/><path class="cls-12" d="M77.31,254.37c-.22-.12-.43-.25-.64-.38C76.88,254.12,77.09,254.25,77.31,254.37Z"/><path class="cls-12" d="M71.63,249.47c-.09-.13-.17-.26-.25-.39C71.46,249.21,71.54,249.34,71.63,249.47Z"/><path class="cls-12" d="M71.22,248.79c-.07-.14-.14-.27-.2-.41C71.08,248.52,71.15,248.65,71.22,248.79Z"/><path class="cls-12" d="M70.9,248.1c-.06-.14-.1-.28-.15-.42C70.8,247.82,70.84,248,70.9,248.1Z"/><path class="cls-12" d="M70.53,246.71a5.49,5.49,0,0,1,0-.7A5.49,5.49,0,0,0,70.53,246.71Z"/><path class="cls-12" d="M72.13,250.16c-.11-.13-.21-.27-.3-.4C71.92,249.89,72,250,72.13,250.16Z"/><path class="cls-12" d="M75.32,253.08c-.23-.16-.44-.32-.64-.48C74.88,252.76,75.09,252.92,75.32,253.08Z"/><path class="cls-12" d="M381.22,249q-.14.24-.3.48Q381.08,249.28,381.22,249Z"/><path class="cls-12" d="M76.27,253.73c-.21-.14-.41-.27-.6-.41C75.86,253.46,76.06,253.59,76.27,253.73Z"/><path class="cls-12" d="M381.58,248.33a4.44,4.44,0,0,1-.24.49A4.44,4.44,0,0,0,381.58,248.33Z"/><path class="cls-12" d="M74.45,252.43q-.42-.33-.78-.66Q74,252.1,74.45,252.43Z"/><path class="cls-12" d="M73.48,251.6l-.51-.49Z"/><path class="cls-12" d="M381.85,247.61c-.05.17-.11.34-.18.52C381.74,248,381.8,247.78,381.85,247.61Z"/><path class="cls-6" d="M80.35,256c22.14,10.81,79.12,18.5,145.94,18.5S350.1,266.82,372.23,256c-22.14-10.81-79.13-18.5-145.94-18.5S102.49,245.2,80.35,256Z"/><ellipse class="cls-13" cx="188.47" cy="237.75" rx="15.83" ry="13.01"/><ellipse class="cls-13" cx="227.4" cy="242.76" rx="15.83" ry="13.01"/><ellipse class="cls-14" cx="243.35" cy="256.56" rx="15.83" ry="13.01"/><ellipse class="cls-13" cx="274.42" cy="252.1" rx="15.83" ry="13.01"/><ellipse class="cls-15" cx="294.42" cy="243.54" rx="15.83" ry="13.01"/><ellipse class="cls-15" cx="166.64" cy="250.76" rx="15.83" ry="13.01"/><ellipse class="cls-13" cx="318.2" cy="252.84" rx="15.83" ry="13.01"/><ellipse class="cls-13" cx="143.9" cy="254.37" rx="15.83" ry="13.01"/><ellipse class="cls-13" cx="199.12" cy="261.91" rx="14.82" ry="12.18"/><ellipse class="cls-15" cx="204.3" cy="245.73" rx="14.82" ry="12.18"/><ellipse class="cls-15" cx="249.49" cy="241.36" rx="14.82" ry="12.18"/></g></svg>