<svg enable-background="new 0 0 128 128" viewBox="0 0 128 128" xmlns="http://www.w3.org/2000/svg" xmlns:xlink="http://www.w3.org/1999/xlink"><linearGradient id="a" gradientUnits="userSpaceOnUse" x1="35.0123" x2="88.7753" y1="50.7107" y2="104.4767"><stop offset=".1705" stop-color="#fafbfb"/><stop offset=".8701" stop-color="#eee"/></linearGradient><radialGradient id="b" cx="79.164" cy="959.5135" gradientTransform="matrix(1 0 0 .6527 0 -570.61)" gradientUnits="userSpaceOnUse" r="10.855"><stop offset=".5587" stop-color="#fbc41f"/><stop offset="1" stop-color="#d09c2b"/></radialGradient><linearGradient id="c"><stop offset=".5352" stop-color="#f37123"/><stop offset="1" stop-color="#e05f26"/></linearGradient><radialGradient id="d" cx="92.751" cy="865.0797" gradientTransform="matrix(1 0 0 .7994 0 -629.9407)" gradientUnits="userSpaceOnUse" r="8.0621" xlink:href="#c"/><radialGradient id="e" cx="171.498" cy="184.5703" gradientTransform="matrix(0 1 -1.0588 0 242.9199 -123.7567)" gradientUnits="userSpaceOnUse" r="37.28"><stop offset=".4829" stop-color="#fff"/><stop offset=".724" stop-color="#eceff0"/><stop offset=".9654" stop-color="#d0d8dc"/></radialGradient><radialGradient id="f" cx="-45.7563" cy="1260.0026" gradientTransform="matrix(.9314 -.364 .1825 .4668 -87.0985 -534.3422)" gradientUnits="userSpaceOnUse" r="7.6411"><stop offset=".4892" stop-color="#fbc41f"/><stop offset="1" stop-color="#d09c2b"/></radialGradient><radialGradient id="g" cx="61.5569" cy="99.3524" gradientUnits="userSpaceOnUse" r="5.9162" xlink:href="#c"/><linearGradient id="h"><stop offset="0" stop-color="#6c463f"/><stop offset=".784" stop-color="#5a352e"/></linearGradient><radialGradient id="i" cx="261.334" cy="637.6316" gradientTransform="matrix(.7975 .6033 -.419 .554 145.2053 -435.748)" gradientUnits="userSpaceOnUse" r="8.9603" xlink:href="#h"/><radialGradient id="j" cx="40.975" cy="959.4097" gradientTransform="matrix(1 0 0 .6946 0 -577.8516)" gradientUnits="userSpaceOnUse" r="8.821" xlink:href="#h"/><radialGradient id="k" cx="32.4978" cy="1084.4866" gradientTransform="matrix(.9908 -.1356 .0817 .5971 -38.5845 -554.8237)" gradientUnits="userSpaceOnUse" r="11.326"><stop offset=".2866" stop-color="#fbc41f"/><stop offset="1" stop-color="#d09c2b"/></radialGradient><path d="m64 51.2c15.9 0 30.8 3.7 41.9 10.5 10.7 6.5 16.6 14.9 16.6 23.8s-5.9 17.3-16.6 23.8c-11.1 6.8-26 10.5-41.9 10.5s-30.8-3.7-41.9-10.5c-10.7-6.5-16.6-14.9-16.6-23.8s5.9-17.3 16.6-23.8c11.1-6.7 26-10.5 41.9-10.5" fill="#9d9d9d"/><ellipse cx="64" cy="79.7" fill="url(#a)" rx="60" ry="37.3"/><circle cx="76.1" cy="76.8" fill="#f5f5f5" r="9"/><circle cx="64" cy="83.2" fill="#f5f5f5" r="9"/><path d="m110.7 74c-1 2 1.1 4.6 2.1 7.2 1.2 3.3-.1 7.8-4 11-4.5 3.7-6.3 2.5-9.4 4.5-2.9 1.9-1.6 4.2-5.4 6.7-1.4.9-6.7.4-9.4 1-3.9.9-8.5 3.2-17.8 3.3-5.9.1-13.4-.9-18.6-2.3-3.4-.9-4.5-2.8-7.5-4.1-6.6-2.9-15.7-2-20.7-10.2-1.6-2.6 0-3.5-.9-6.6-.8-2.7-3.2-2.8-3.2-7.8 0-16.7 16.2-28.5 50-28.5 29.2 0 50.6 13.6 44.8 25.8z" fill="#9a5a25"/><path d="m81.5 64.1s-5.4 1.1-8.9-4c-2.1-3 1-4.7 4.1-6.2s7.9-.6 10.8 1.2 2.6 4 2.6 4c-.2.1-.5 4.2-8.6 5z" fill="url(#b)"/><path d="m80.4 54c2.2 0 4.7.7 6.5 1.8 2.1 1.3 2.1 2.7 2.1 2.9v.1c-.5 2.3-3.2 3.8-7.6 4.2h-.1s-.4.1-1.1.1c-1.6 0-4.7-.5-6.9-3.7-.6-.9-.5-1.4-.5-1.6.3-1.3 2.8-2.5 4.2-3.2 1-.3 2.2-.6 3.4-.6m0-1c-1.4 0-2.7.2-3.8.8-3.1 1.5-6.2 3.3-4.1 6.2 2.5 3.5 5.9 4.1 7.7 4.1.8 0 1.2-.1 1.2-.1 8.1-.8 8.4-4.9 8.5-5.1 0 0 .3-2.2-2.6-4-1.7-1.1-4.4-1.9-6.9-1.9z" fill="#434343" opacity=".2"/><path d="m88.7 63c.5.5-4.8 2.2-7.2 2.2s-7.4-1.7-7.4-2.4 2.4-1.4 3.5-.8c4.4 2.3 7.6-2.7 11.1 1z" fill="#9a5a25"/><path d="m86.6 64.2c1.2-3.5 2.2-4.2 5-5.5s6.8.2 9.1 2.4c0 0 .1 0 .1.1 2 2 1.4 5.4-1.1 6.6-1 .5-7.7 1.6-12.2 0-1.3-.5-1.3-2.6-.9-3.6z" fill="url(#d)"/><path d="m65.9 49.2c23 0 38.5 8 43.1 15.4 1.9 3 2.2 6 .8 8.9-.9 1.9.1 3.8 1 5.8.4.7.7 1.5 1 2.2 1.1 3.1-.4 7.2-3.7 9.9-2.5 2.1-4.1 2.5-5.7 2.9-1.1.3-2.2.6-3.6 1.4-1.6 1-2.2 2.3-2.7 3.3-.5 1.1-1 2.2-2.7 3.3-.6.4-2.8.4-4.3.5-1.7.1-3.4.1-4.7.4-1 .2-2 .5-3.1.9-3.4 1-7.6 2.3-14.5 2.4h-.6c-5.5 0-12.6-.9-17.7-2.3-1.8-.5-2.9-1.2-4.1-2.1-.9-.7-1.9-1.3-3.3-1.9-2.1-.9-4.4-1.5-6.7-2-5.1-1.2-10.3-2.4-13.6-7.8-.7-1.2-.6-1.8-.5-2.8.1-.9.2-2-.2-3.6-.3-1.2-1-2-1.5-2.7-.9-1.1-1.7-2.1-1.7-4.8 0-8.2 4.1-15 11.8-19.7 8.6-4.9 21.1-7.6 37.2-7.6m0-1c-33.8 0-50 11.7-50 28.5 0 5 2.5 5.1 3.2 7.8.9 3.2-.7 4 .9 6.6 5 8.2 14.1 7.3 20.7 10.2 3 1.3 4.1 3.2 7.5 4.1 5 1.3 12.2 2.3 18 2.3h.6c9.3-.1 13.9-2.4 17.8-3.3 2.7-.6 8-.1 9.4-1 3.8-2.5 2.4-4.8 5.4-6.7 3.1-1.9 4.9-.7 9.4-4.5 3.9-3.2 5.2-7.8 4-11-.9-2.6-3-5.2-2.1-7.2 5.8-12.2-15.6-25.8-44.8-25.8z" fill="#434343" opacity=".2"/><path d="m78.2 73.6s0-.1-.1-.1c-.4-.7-.4-1.4-.3-2.2.2-.9.1-1.8-.2-2.8-.2-.9-.5-1.5-.8-1.9-2.5-7.7-13.7-19.8-28.1-19.8-12.8 0-23.3 9.7-27.2 17.2 0 0-2.6 3.5-2.9 7.1-.3 3.7 2.1 4.3 2.3 5.7.2 1.9 1 4.2 3.3 4.7.9.2 1.5 1 2 1.7 2.4 3.5 4.6 4.5 8.4 4.6 1.5 0 5.2.6 5.9 1 1 .5 2.2.8 3.5.8.9 0 1.8-.2 2.5-.4 1.1-.4 2.4-.4 3.5 0 1.1.3 2.3.5 3.7.4s2.7-.5 3.7-1.1c1.1-.7 2.5-.8 3.8-.4 1.1.3 2.4.4 3.7.1 1.7-.4 3.2-1.3 4-2.3.7-.9 1.8-1.6 3-1.8.5-.1 1-.2 1.5-.4 1.2-.5 1.8-1.9 2-3 .3-1 .8-2 1.6-2.7 1.4-1.5 1.9-3 1.2-4.4z" fill="url(#e)"/><ellipse cx="50.1" cy="81.5" fill="#90a4ae" opacity=".2" rx="3.1" ry="1.9" transform="matrix(.9677 -.2523 .2523 .9677 -18.942 15.2762)"/><ellipse cx="70.02" cy="76.14" fill="#90a4ae" opacity=".2" rx="3.2" ry="1.8" transform="matrix(.314 -.9494 .9494 .314 -24.2623 118.7076)"/><ellipse cx="31.35" cy="79.33" fill="#90a4ae" opacity=".2" rx="3.2" ry="1.8" transform="matrix(.00819824 -1 1 .00819824 -48.2314 110.0307)"/><ellipse cx="40.6" cy="84" fill="#90a4ae" opacity=".2" rx="3.1" ry="1.9" transform="matrix(.9973 -.074 .074 .9973 -6.1045 3.2345)"/><ellipse cx="59.52" cy="75.51" fill="#d0d8dc" opacity=".2" rx="1.8" ry="3.2" transform="matrix(.8379 -.5458 .5458 .8379 -31.5647 44.7225)"/><ellipse cx="32.68" cy="64.37" fill="#d0d8dc" opacity=".2" rx="2.1" ry="1.3" transform="matrix(.1938 -.981 .981 .1938 -36.8023 83.9517)"/><ellipse cx="39.35" cy="75.5" fill="#d0d8dc" opacity=".2" rx="2.1" ry="1.3" transform="matrix(.1938 -.981 .981 .1938 -42.349 99.4741)"/><ellipse cx="23.38" cy="66.9" fill="#d0d8dc" opacity=".2" rx="2.1" ry="1.3" transform="matrix(.1938 -.981 .981 .1938 -46.7825 76.867)"/><ellipse cx="51.26" cy="73.3" fill="#d0d8dc" opacity=".2" rx="1.3" ry="2.1" transform="matrix(.7472 -.6646 .6646 .7472 -35.7537 52.6003)"/><ellipse cx="62.4" cy="83.99" fill="#90a4ae" opacity=".2" rx="2.2" ry="1.3" transform="matrix(.9053 -.4248 .4248 .9053 -29.7707 34.4607)"/><ellipse cx="23.4" cy="74.4" fill="#b0bec5" opacity=".2" rx="1.5" ry="2.8" transform="matrix(.9971 -.076 .076 .9971 -5.5867 1.9934)"/><ellipse cx="29.51" cy="71.71" fill="#b0bec5" opacity=".2" rx="2.7" ry="1.5" transform="matrix(.9495 -.3138 .3138 .9495 -21.0114 12.8825)"/><g fill="#d0d8dc"><ellipse cx="65.91" cy="68.49" opacity=".2" rx="2.7" ry="1.3" transform="matrix(.9583 -.2859 .2859 .9583 -16.8295 21.7021)"/><ellipse cx="65.79" cy="74.39" opacity=".2" rx="1.2" ry="2.2" transform="matrix(.9885 -.1511 .1511 .9885 -10.4856 10.7959)"/><ellipse cx="53" cy="64.9" opacity=".2" rx="1.2" ry="2.2" transform="matrix(.9885 -.1511 .1511 .9885 -9.1976 8.7539)"/><ellipse cx="39.33" cy="62.11" opacity=".2" rx="2.2" ry="1.2" transform="matrix(.6439 -.7651 .7651 .6439 -33.5183 52.2084)"/><ellipse cx="27.79" cy="60.62" opacity=".2" rx="1.9" ry="1.3" transform="matrix(.8552 -.5183 .5183 .8552 -27.3936 23.1794)"/><ellipse cx="44.02" cy="67.72" opacity=".2" rx="1.9" ry="1.3" transform="matrix(.8552 -.5183 .5183 .8552 -28.7231 32.6212)"/><ellipse cx="58.61" cy="64.9" opacity=".2" rx="1.9" ry="1.3" transform="matrix(.8552 -.5183 .5183 .8552 -25.15 39.775)"/><ellipse cx="71.89" cy="64.84" opacity=".2" rx="1.3" ry="1.9" transform="matrix(.3291 -.9443 .9443 .3291 -12.992 111.386)"/><ellipse cx="37.49" cy="53.3" opacity=".2" rx="1.9" ry="1.2" transform="matrix(.9597 -.281 .281 .9597 -13.4678 12.683)"/><ellipse cx="53.14" cy="57.47" opacity=".2" rx="1.3" ry="1.9" transform="matrix(.0906 -.9959 .9959 .0906 -8.9093 105.1861)"/></g><path d="m95 73.4c-.6-1.9 2.9-3.8 5.2-4.8s4.9-.1 6.8 1.7c0 0 0 0 .1.1 1.4 1.3.8 3.6-1 4.2-3.1.9-9.9 2.5-11.1-1.2z" fill="url(#f)"/><path d="m93.9 59.2c2 0 4.4 1 6 2.6l.1.1c.7.7 1 1.7.9 2.7-.2 1-.8 1.9-1.7 2.3-.4.2-3 .7-5.9.7-2.2 0-4.1-.3-5.5-.8-.1 0-.2-.3-.3-.8-.1-.6 0-1.2.1-1.6 1.1-3.2 1.8-3.7 4.5-4.9.5-.2 1.1-.4 1.8-.3m0-1.1c-.8 0-1.7.2-2.4.5-2.8 1.3-3.8 2-5 5.5-.3 1-.4 3.2.8 3.6 1.8.6 3.9.8 5.9.8 3.1 0 5.8-.5 6.4-.8 2.5-1.3 3.1-4.7 1.1-6.6 0 0-.1 0-.1-.1-1.7-1.6-4.3-2.9-6.7-2.9z" fill="#434343" opacity=".2"/><path d="m68.7 101c.7-2.2-3.2-4.2-5.8-5.4s-5.4-.1-7.6 1.9l-.1.1c-1.5 1.4-.9 4 1.1 4.7 3.4 1.1 11 2.8 12.4-1.3z" fill="url(#g)"/><path d="m102.2 69.1c1.3 0 2.8.7 4.1 1.9.4.3.5.8.4 1.4s-.5 1-1 1.2c-1.1.4-3.8 1.2-6.2 1.2-3 0-3.4-1.2-3.6-1.7 0-.1-.3-1.4 4.7-3.6.5-.3 1.1-.4 1.6-.4m0-1c-.7 0-1.4.1-2 .4-2.4 1.1-5.9 2.9-5.2 4.8.6 1.8 2.4 2.3 4.5 2.3 2.3 0 4.9-.7 6.6-1.2 1.8-.6 2.4-2.9 1-4.2 0 0 0 0-.1-.1-1.4-1.1-3.1-2-4.8-2z" fill="#434343" opacity=".2"/><path d="m101.3 67.2c.6.4-4.9 2.6-7.6 2.4-7.5-.6-8.4-3.1-7.7-2.9 1.5.4 1.7-.7 3.4-.3 6.2 1.4 7.2-2.3 11.9.8z" fill="#9a5a25"/><path d="m109.6 74.7c.6.4-5.3 2.6-8.1 2.4-8-.6-9-3.1-8.2-2.9 1.6.4 1.8-.7 3.6-.3 6.6 1.4 7.7-2.2 12.7.8z" fill="#9a5a25"/><path d="m64 45.5c15.5 0 30 3.7 40.8 10.5 10.4 6.5 16.2 14.9 16.2 23.8s-5.7 17.3-16.2 23.8c-10.8 6.6-25.3 10.4-40.8 10.4s-30-3.7-40.8-10.5c-10.5-6.5-16.2-14.9-16.2-23.8s5.7-17.3 16.2-23.8c10.8-6.7 25.3-10.5 40.8-10.4m0-3.1c-33.1 0-60 16.7-60 37.3s26.9 37.3 60 37.3 60-16.7 60-37.3-26.9-37.3-60-37.3z" fill="#434343" opacity=".2"/><path d="m48.7 47.8c13.5 0 24.6 11.3 27.1 19.1 0 .1.1.2.1.3.3.4.5.9.7 1.6.3 1 .3 1.7.2 2.3-.2 1-.1 2 .4 2.8v.1c.4.9.1 2-.8 2.9-1 .9-1.6 2-1.9 3.2-.2.7-.6 2-1.5 2.3-.4.2-.8.3-1.2.3-1.5.2-2.8 1-3.7 2.2-.7.9-2 1.7-3.4 2-.5.1-1 .2-1.5.2-.6 0-1.2-.1-1.7-.2s-1.1-.2-1.7-.2c-1 0-2 .3-2.9.8s-2.1.9-3.3 1c-.3 0-.5 0-.8 0-.9 0-1.7-.1-2.5-.4-.7-.2-1.4-.3-2.1-.3s-1.4.1-2 .3c-.7.2-1.4.3-2.2.3-1.1 0-2.2-.3-3.1-.7-1-.5-4.9-1.1-6.3-1.1-3.7-.1-5.5-1.1-7.6-4.1-.6-1-1.4-1.9-2.6-2.1-1.8-.3-2.4-2.5-2.5-3.8-.1-.8-.6-1.3-1-1.9-.7-.8-1.4-1.6-1.3-3.6.2-3 2.3-6 2.7-6.5 0-.1.1-.1.1-.2 3.5-6.7 13.4-16.6 26.3-16.6m0-1c-12.8 0-23.3 9.7-27.2 17.2 0 0-2.6 3.5-2.9 7.1-.3 3.7 2.1 4.3 2.3 5.7.2 1.9 1 4.2 3.3 4.7.9.2 1.5 1 2 1.7 2.4 3.5 4.6 4.5 8.4 4.6 1.5 0 5.2.6 5.9 1 1 .5 2.2.8 3.5.8.9 0 1.8-.2 2.5-.4.6-.2 1.2-.3 1.7-.3.6 0 1.2.1 1.8.3.8.3 1.8.4 2.8.4h.9c1.4-.1 2.7-.5 3.7-1.1.7-.4 1.6-.6 2.4-.6.5 0 .9.1 1.4.2.6.2 1.3.3 2 .3.6 0 1.1-.1 1.7-.2 1.7-.4 3.2-1.3 4-2.3.7-.9 1.8-1.6 3-1.8.5-.1 1-.2 1.5-.4 1.2-.5 1.8-1.9 2-3 .3-1 .8-2 1.6-2.7 1.2-1.2 1.7-2.7 1.1-4.1 0 0 0-.1-.1-.1-.4-.7-.4-1.4-.3-2.2.2-.9.1-1.8-.2-2.8-.2-.9-.5-1.5-.8-1.9-2.3-8-13.6-20.1-28-20.1z" fill="#434343" opacity=".2"/><path d="m79.8 75.7c.4-4.5-3.5-11.4-3.5-11.4s2.8 7.7-.3 8.3c-2.8.6-1.6 4.8-4 6.7-3.4 2.8-7.4-1.8-10.5 2.8-3.5 5.1-10.9 5.2-12.9 3.8s-6-1.9-10.6-.6c-7.1 2.1-12.8-4.3-13.2-3.8-2.9 2.7 12.8 14.9 47.3 4.8 6.3-1.7 7.3-6.1 7.7-10.6z" fill="#9a5a25"/><path d="m60.6 96.1c.6 0 1.3.1 1.8.4 5.5 2.5 5.4 3.9 5.3 4.2-.4 1.3-1.8 1.9-4.1 1.9-2.7 0-5.8-.9-7-1.3-.6-.2-1.1-.7-1.2-1.4-.1-.6 0-1.2.5-1.6v-.1c1.5-1.3 3.2-2.1 4.7-2.1m0-1c-1.9 0-3.8 1-5.3 2.4l-.1.1c-1.5 1.4-.9 4 1.1 4.7 1.8.6 4.7 1.4 7.3 1.4 2.3 0 4.4-.6 5-2.6.7-2.2-3.2-4.2-5.8-5.4-.7-.4-1.5-.6-2.2-.6z" fill="#434343" opacity=".2"/><path d="m72.6 98.6c.8.3-1.2 6.3-10.5 6.3s-10.4-3.1-9.6-2.9c1.9.4 3.9-.8 6-.3 9.5 2.4 10.3-4.7 14.1-3.1z" fill="#9a5a25"/><path d="m82.9 78.3c.8-2.2 3.3-5.1 6.2-4.4s5.5 1.5 7 4.6c0 0 3.7 5-3.1 5.6-3.7.4-11.6-1.4-10.1-5.8z" fill="url(#i)"/><path d="m88.2 74.8c.2 0 .4 0 .7.1 2.7.6 5 1.3 6.3 4.1 0 .1.1.1.1.2.2.3 1.1 1.8.7 2.7-.3.7-1.4 1.1-3 1.2-.2 0-.5 0-.8 0-2.9 0-6.9-1-8.1-2.7-.4-.6-.5-1.1-.2-1.8.5-1.8 2.4-3.8 4.3-3.8m0-1c-2.6 0-4.7 2.5-5.3 4.5-1.4 4 5.3 5.8 9.3 5.8h.9c6.7-.6 3.1-5.6 3.1-5.6-1.5-3.1-4.1-4-7-4.6-.4 0-.7-.1-1-.1z" fill="#434343" opacity=".2"/><path d="m99.8 81.9c.7.4-2.3 5.6-9.9 4.2-5.9-1.1-9-3.6-8.3-4.2 1-1 2.2-.6 4.3 0 11.3 3.4 10.2-2 13.9 0z" fill="#9a5a25"/><path d="m35.5 92c-.8-2.2 1.4-4.4 4.1-5.6s7.7-.1 9.9 2c0 0 0 0 .1.1 1.6 1.5.9 4.2-1.2 4.9-3.5 1.1-11.4 3-12.9-1.4z" fill="url(#j)"/><path d="m42.4 86.8c2.4 0 5.1.9 6.5 2.2v.1c.5.4.7 1.1.5 1.8s-.7 1.2-1.3 1.5c-1.3.4-4.5 1.4-7.4 1.4-2.4 0-3.9-.7-4.3-2-.6-1.7 1.4-3.4 3.6-4.4.6-.4 1.4-.5 2.4-.6m0-.9c-1 0-2 .2-2.8.5-2.8 1.2-4.9 3.4-4.1 5.6.7 2.1 2.8 2.7 5.3 2.7 2.7 0 5.8-.8 7.7-1.4 2.1-.7 2.8-3.4 1.2-4.9 0 0 0 0-.1-.1-1.7-1.4-4.7-2.4-7.2-2.4z" fill="#434343" opacity=".2"/><path d="m52.6 89.7c.7.4-2 7-11.2 6-9.3-.9-10-5-9.1-4.7 1.8.6 4-.4 6 .3 9.2 3.4 10.6-3.6 14.3-1.6z" fill="#9a5a25"/><path d="m73.8 91.6c-.7-2.8 4.5-5 8-6.3s6.9.5 9.5 3.2l.1.1c1.8 2 .7 5.2-1.9 5.9-4.6 1-14.4 2.5-15.7-2.9z" fill="url(#k)"/><path d="m84.1 85.9c2.2 0 4.4 1.2 6.4 3.3l.1.1c.6.7.8 1.5.5 2.4s-1 1.6-1.9 1.8c-1.6.4-4.7 1-7.7 1-4 0-6.2-1.1-6.8-3.2-.2-.7.2-2.6 7.4-5.1.7-.2 1.4-.3 2-.3m0-1c-.8 0-1.6.1-2.3.4-3.5 1.2-8.7 3.4-8 6.3.7 3 4.1 3.9 7.7 3.9 2.9 0 5.9-.6 7.9-1 2.6-.6 3.7-3.8 1.9-5.9l-.1-.1c-1.9-2.1-4.4-3.6-7.1-3.6z" fill="#434343" opacity=".2"/><path d="m94.9 92.2c.6.6-.4 6.1-11.6 5.2-9.3-.7-10.3-3.7-9.4-3.4 1.9.5 3.4-1.5 5.5-.9 9.4 3 12.8-3.6 15.5-.9z" fill="#9a5a25"/></svg>