<svg viewBox="0 0 72 72" xmlns="http://www.w3.org/2000/svg"><path d="m45.4263 13.1171a8.0385 8.0385 0 0 1 2.0928.8837c4.3283 2.4312 8.0059 6.3592 8.8956 11.3845a17.9766 17.9766 0 0 1 -1.5394 10.1747 27.03 27.03 0 0 1 -8.7037 10.9286c-3.0374 2.2395-6.6036 3.8921-8.9708 6.8311-2.2373 2.7778-3.4393 6.7023-6.704 8.1389a8.0769 8.0769 0 0 1 -5.0875.2532c-15.7076-3.7282-13.5481-27.1318-6.2627-37.1071l.0236-.0323a27.44 27.44 0 0 1 12.9367-9.3981c3.7139-1.3421 9.335-2.9658 13.3194-2.0572z" fill="#fcea2b" stroke="#fcea2b" stroke-miterlimit="10" stroke-width="2"/><path d="m56.3634 25.3853c-.89-5.0253-4.5673-8.9533-8.8957-11.3845a8.5135 8.5135 0 0 0 -1.8982-.8274 15.522 15.522 0 0 1 5.5371 9.0578 17.9779 17.9779 0 0 1 -1.5394 10.1751 27.0321 27.0321 0 0 1 -8.7038 10.9285c-3.0374 2.2395-6.6036 3.8921-8.9708 6.8311-2.2373 2.7778-3.4392 6.7023-6.7039 8.1389a8.0758 8.0758 0 0 1 -5.0876.2531c-.4642-.11-.91-.24-1.3435-.3842a13.9785 13.9785 0 0 0 6.6 3.5383 8.0765 8.0765 0 0 0 5.0876-.2531c3.2647-1.4366 4.4666-5.3611 6.704-8.1389 2.3671-2.939 5.9333-4.5916 8.9707-6.8311a27.0317 27.0317 0 0 0 8.7041-10.9289 17.9774 17.9774 0 0 0 1.5394-10.1747z" fill="#f1b31c" stroke="#f1b31c" stroke-linecap="round" stroke-linejoin="round" stroke-width="2"/><path d="m40 11.4526s-3.8987 6.1329-9.4684 7.9047-12.5316-.6815-12.5316-.6815 3.8987-6.1329 9.4684-7.9047 12.5316.6815 12.5316.6815z" fill="#b1cc33"/><g fill="none" stroke="#000" stroke-linecap="round" stroke-linejoin="round" stroke-width="2"><path d="m47.69 14.0008c4.4249 2.4312 8.1844 6.3592 9.0941 11.3845a17.6271 17.6271 0 0 1 -1.5735 10.1747 27.1421 27.1421 0 0 1 -8.8979 10.9286c-3.1051 2.2395-6.7509 3.8921-9.1708 6.8311-2.2873 2.7778-3.5161 6.7023-6.8536 8.1389a8.4307 8.4307 0 0 1 -5.201.2532c-16.058-3.7282-13.8503-27.1318-6.4025-37.1071l.0242-.0323a21.53 21.53 0 0 1 4.291-4.5724"/><path d="m41 8.5v5.5"/><path d="m40 11.4526s-3.8987 6.1329-9.4684 7.9047-12.5316-.6815-12.5316-.6815 3.8987-6.1329 9.4684-7.9047 12.5316.6815 12.5316.6815z"/></g></svg>