<svg xmlns="http://www.w3.org/2000/svg" viewBox="0 0 512 512"><defs><style>.cls-1{fill:#76c27d;}.cls-2{fill:#854538;}.cls-3{fill:#f0c788;}.cls-4{fill:#deb680;}.cls-5{fill:#f2d95f;}.cls-6{fill:#f1ce34;}.cls-7{fill:#fff;}.cls-8{fill:#f7efbe;}.cls-9{fill:#db3a46;}.cls-10{fill:#aa3542;}.cls-11{fill:#f6e0b8;}.cls-12{fill:#e1cdab;}.cls-13{fill:#9b112e;}.cls-14{fill:#83122f;}.cls-15{fill:#4f619d;}.cls-16{fill:#495a88;}.cls-17{fill:#d4d5d6;}.cls-18{fill:#313d74;}.cls-19{fill:#d4e85e;}</style></defs><title>Food</title><g id="BULINE"><circle class="cls-1" cx="256" cy="256" r="256"/></g><g id="Icons"><path class="cls-2" d="M462.27,407.64a257.32,257.32,0,0,1-18.69,22.58q-6.24,6.69-12.92,12.95a256,256,0,0,1-319.33,24.05q-7-4.8-13.69-10.07-5.31-4.18-10.4-8.66Q79.34,441.56,72,434a255.93,255.93,0,0,1-22.27-26.35Z"/><path class="cls-3" d="M312.34,138.89a20.23,20.23,0,0,0-23.17-16.79,20,20,0,0,0-8.1,3.21,13.67,13.67,0,0,0-24,10.92.24.24,0,0,1,0,.08c-.53,0-1.06.09-1.6.17a20.24,20.24,0,0,0,6.38,40h0a20.22,20.22,0,0,0,39.86-.79c.32,0,.63-.05,1-.1A14.43,14.43,0,0,0,310.53,151,20.09,20.09,0,0,0,312.34,138.89Z"/><path class="cls-4" d="M293.46,189.13a20.19,20.19,0,0,1-31.53-12.68h0a20.24,20.24,0,0,1-6.39-40c.54-.08,1.08-.13,1.6-.17v-.08a13.67,13.67,0,0,1,20.71-13.77,13.65,13.65,0,0,0-3,11v.08c-.53,0-1,.08-1.59.17a20.24,20.24,0,0,0,6.39,40h0A20.24,20.24,0,0,0,293.46,189.13Z"/><circle class="cls-4" cx="293.67" cy="137.94" r="8.28"/><circle class="cls-4" cx="289.29" cy="162.98" r="6.25"/><path class="cls-3" d="M178.3,86.73A20.21,20.21,0,0,0,147,73.15a13.66,13.66,0,0,0-24,10.93s0,0,0,.08c-.53,0-1.06.08-1.6.17a20.23,20.23,0,1,0,6.39,40h0a20.22,20.22,0,0,0,39.86-.8c.31,0,.63,0,1-.1a14.42,14.42,0,0,0,7.8-24.58A20.2,20.2,0,0,0,178.3,86.73Z"/><path class="cls-4" d="M159.41,137a20.19,20.19,0,0,1-31.53-12.68h0a20.24,20.24,0,1,1-6.38-40c.53-.09,1.07-.13,1.6-.18l0-.08A13.67,13.67,0,0,1,143.75,70.3a13.66,13.66,0,0,0-3,11v.08c-.52,0-1,.09-1.58.17a20.24,20.24,0,1,0,6.38,40h0A20.21,20.21,0,0,0,159.41,137Z"/><circle class="cls-4" cx="159.63" cy="85.78" r="8.28"/><circle class="cls-4" cx="155.24" cy="110.83" r="6.25"/><path class="cls-5" d="M171.51,161a20.2,20.2,0,0,0-14.84-30.7,13.67,13.67,0,0,0-25.3-7.38.16.16,0,0,1,0,.07c-.43-.31-.86-.62-1.32-.91a20.24,20.24,0,1,0-21.25,34.45l0,0a20.22,20.22,0,0,0,30.72,25.4c.26.19.52.38.79.55a14.43,14.43,0,0,0,22-13.54A20.12,20.12,0,0,0,171.51,161Z"/><path class="cls-6" d="M124.42,186.7a20.19,20.19,0,0,1-15.62-30.18l0,0A20.24,20.24,0,1,1,130,122c.46.29.9.6,1.33.92l0-.07A13.67,13.67,0,0,1,156.06,126a13.67,13.67,0,0,0-9.44,6.32l-.05.07c-.42-.31-.85-.62-1.31-.9A20.24,20.24,0,0,0,124,165.9h0A20.21,20.21,0,0,0,124.42,186.7Z"/><circle class="cls-6" cx="157.98" cy="148.05" r="8.28"/><circle class="cls-6" cx="138.32" cy="164.17" r="6.25"/><path class="cls-5" d="M279,161a20.2,20.2,0,0,0-14.83-30.7,13.67,13.67,0,0,0-25.31-7.38l0,.07c-.43-.31-.87-.62-1.33-.91a20.24,20.24,0,0,0-21.24,34.45l0,0A20.22,20.22,0,0,0,247,181.91c.25.19.51.38.78.55a14.43,14.43,0,0,0,22-13.54A20.07,20.07,0,0,0,279,161Z"/><path class="cls-6" d="M231.88,186.7a20.19,20.19,0,0,1-15.62-30.18l0,0A20.24,20.24,0,1,1,237.48,122c.46.29.89.6,1.32.92l0-.07A13.67,13.67,0,0,1,263.52,126a13.67,13.67,0,0,0-9.44,6.32l0,.07c-.43-.31-.86-.62-1.32-.9a20.24,20.24,0,1,0-21.24,34.45h0A20.23,20.23,0,0,0,231.88,186.7Z"/><circle class="cls-6" cx="265.45" cy="148.05" r="8.28"/><circle class="cls-6" cx="245.78" cy="164.17" r="6.25"/><path class="cls-5" d="M147.51,46.94a20.21,20.21,0,0,0-26.44-21.53,13.67,13.67,0,0,0-26,4v.08c-.53-.1-1-.2-1.59-.27a20.24,20.24,0,1,0-4.65,40.21h0a20.22,20.22,0,0,0,38.59,10c.31.06.62.12.94.16A14.43,14.43,0,0,0,142.5,58.07,20.16,20.16,0,0,0,147.51,46.94Z"/><path class="cls-6" d="M115.75,90.21A20.19,20.19,0,0,1,88.82,69.47h0a20.24,20.24,0,1,1,4.65-40.21c.54.06,1.07.17,1.59.27v-.08a13.67,13.67,0,0,1,23.66-7.67,13.68,13.68,0,0,0-5.88,9.73v.08c-.51-.1-1-.21-1.57-.27a20.24,20.24,0,0,0-4.66,40.21h0A20.25,20.25,0,0,0,115.75,90.21Z"/><circle class="cls-6" cx="129.79" cy="40.98" r="8.28"/><circle class="cls-6" cx="118.8" cy="63.91" r="6.25"/><path class="cls-5" d="M293.62,104.42a20.2,20.2,0,0,0-13.79-31.18,13.67,13.67,0,0,0-25-8.22.25.25,0,0,0,0,.07c-.42-.33-.84-.66-1.29-1a20.24,20.24,0,1,0-22.4,33.72h0a20.23,20.23,0,0,0,29.85,26.43c.25.19.5.39.77.57a14.43,14.43,0,0,0,22.4-12.79A20.16,20.16,0,0,0,293.62,104.42Z"/><path class="cls-6" d="M245.69,128.57a20.19,20.19,0,0,1-14.59-30.7l0,0a20.24,20.24,0,1,1,22.4-33.72c.45.3.88.63,1.29,1l.05-.07a13.68,13.68,0,0,1,24.56,3.9,13.67,13.67,0,0,0-9.65,6l0,.06c-.42-.32-.84-.65-1.29-.95A20.24,20.24,0,0,0,246,107.76l0,0A20.23,20.23,0,0,0,245.69,128.57Z"/><circle class="cls-6" cx="280.54" cy="91.07" r="8.28"/><circle class="cls-6" cx="260.34" cy="106.52" r="6.25"/><path class="cls-3" d="M110.28,138.89A20.21,20.21,0,0,0,79,125.31a13.66,13.66,0,0,0-24,10.92s0,.05,0,.08c-.53,0-1.06.09-1.59.17a20.24,20.24,0,1,0,6.38,40h0a20.22,20.22,0,0,0,39.86-.79c.31,0,.63-.05,1-.1a14.43,14.43,0,0,0,7.8-24.59A20.17,20.17,0,0,0,110.28,138.89Z"/><path class="cls-4" d="M91.4,189.13a20.2,20.2,0,0,1-31.54-12.68h0a20.24,20.24,0,1,1-6.38-40c.53-.08,1.07-.13,1.6-.17v-.08a13.66,13.66,0,0,1,20.7-13.77,13.65,13.65,0,0,0-3,11l0,.08c-.53,0-1.06.08-1.59.17a20.24,20.24,0,1,0,6.38,40h0A20.22,20.22,0,0,0,91.4,189.13Z"/><circle class="cls-4" cx="91.61" cy="137.94" r="8.28"/><circle class="cls-4" cx="87.22" cy="162.98" r="6.25"/><path class="cls-3" d="M253.93,30.5a20.21,20.21,0,0,0-31.28-13.59,13.67,13.67,0,0,0-24,10.93s0,.05,0,.08c-.53,0-1.06.08-1.6.17a20.24,20.24,0,0,0,6.39,40h0a20.22,20.22,0,0,0,39.86-.8c.31,0,.63,0,.95-.1a14.42,14.42,0,0,0,7.8-24.58A20.17,20.17,0,0,0,253.93,30.5Z"/><path class="cls-4" d="M235,80.73a19.88,19.88,0,0,1-8.5,3.48,20.2,20.2,0,0,1-23-16.16h0a20.24,20.24,0,1,1-6.38-40c.53-.09,1.07-.13,1.6-.18l0-.08a13.68,13.68,0,0,1,20.71-13.77,13.66,13.66,0,0,0-3,11v.08c-.52,0-1.05.09-1.58.17a20.24,20.24,0,1,0,6.38,40h0A20.21,20.21,0,0,0,235,80.73Z"/><circle class="cls-4" cx="235.26" cy="29.54" r="8.28"/><circle class="cls-4" cx="230.87" cy="54.59" r="6.25"/><path class="cls-7" d="M217.08,127.29a20.2,20.2,0,0,0-33.71-5.12A13.67,13.67,0,0,0,163,138.87a.43.43,0,0,0,0,.07c-.5.18-1,.36-1.5.58a20.24,20.24,0,0,0,16.4,37h0a20.23,20.23,0,0,0,38.33-11c.29-.11.59-.21.89-.34a14.43,14.43,0,0,0,1.25-25.77A20.14,20.14,0,0,0,217.08,127.29Z"/><path class="cls-8" d="M211.69,180.69A20.19,20.19,0,0,1,178,176.51h0a20.24,20.24,0,1,1-16.41-37c.49-.22,1-.4,1.5-.58l0-.07a13.68,13.68,0,0,1,16.49-18.62,13.64,13.64,0,0,0-.13,11.36l0,.07c-.5.18-1,.36-1.49.58a20.24,20.24,0,0,0,16.4,37h0A20.22,20.22,0,0,0,211.69,180.69Z"/><circle class="cls-8" cx="198.79" cy="131.15" r="8.28"/><circle class="cls-8" cx="200.96" cy="156.48" r="6.25"/><path class="cls-7" d="M112.6,76.81A20.2,20.2,0,0,0,78.89,71.7,13.67,13.67,0,0,0,58.5,88.4a.43.43,0,0,1,0,.07c-.5.18-1,.36-1.5.58a20.23,20.23,0,1,0,16.4,37h0a20.22,20.22,0,0,0,38.32-11c.3-.11.6-.21.9-.34A14.42,14.42,0,0,0,113.94,89,20.18,20.18,0,0,0,112.6,76.81Z"/><path class="cls-8" d="M107.21,130.21a19.92,19.92,0,0,1-7.32,5.54A20.21,20.21,0,0,1,73.48,126l0,0A20.24,20.24,0,0,1,57,89c.49-.22,1-.4,1.5-.58l0-.07A13.66,13.66,0,0,1,75,69.78a13.68,13.68,0,0,0-.12,11.36l0,.07c-.5.18-1,.35-1.49.57a20.24,20.24,0,0,0,16.4,37l0,0A20.2,20.2,0,0,0,107.21,130.21Z"/><circle class="cls-8" cx="94.31" cy="80.68" r="8.28"/><circle class="cls-8" cx="96.48" cy="106.01" r="6.25"/><path class="cls-7" d="M233.35,73.24a20.2,20.2,0,0,0-33.71-5.12,13.67,13.67,0,0,0-20.39,16.7l0,.07c-.5.18-1,.36-1.5.58a20.24,20.24,0,0,0,16.4,37l0,0a20.23,20.23,0,0,0,38.33-11c.3-.11.59-.22.89-.35a14.42,14.42,0,0,0,1.25-25.76A20.14,20.14,0,0,0,233.35,73.24Z"/><path class="cls-8" d="M228,126.63a20.2,20.2,0,0,1-33.74-4.18l0,0a20.24,20.24,0,0,1-16.41-37c.49-.22,1-.4,1.5-.57l0-.08A13.66,13.66,0,0,1,195.75,66.2a13.64,13.64,0,0,0-.12,11.36l0,.07c-.5.18-1,.35-1.49.57a20.24,20.24,0,0,0,16.4,37h0A20.21,20.21,0,0,0,228,126.63Z"/><circle class="cls-8" cx="215.06" cy="77.1" r="8.28"/><circle class="cls-8" cx="217.23" cy="102.43" r="6.25"/><path class="cls-7" d="M192.66,22.06A20.2,20.2,0,0,0,159,16.94a13.67,13.67,0,0,0-20.39,16.7.43.43,0,0,1,0,.07c-.5.18-1,.36-1.5.58a20.24,20.24,0,1,0,16.4,37l0,0a20.23,20.23,0,0,0,38.33-11c.29-.11.59-.21.89-.34A14.42,14.42,0,0,0,194,34.19,20.14,20.14,0,0,0,192.66,22.06Z"/><path class="cls-8" d="M187.28,75.45a20.2,20.2,0,0,1-33.74-4.18l0,0a20.24,20.24,0,1,1-16.41-37c.49-.22,1-.4,1.5-.57l0-.08A13.66,13.66,0,0,1,155.06,15a13.64,13.64,0,0,0-.12,11.36l0,.07c-.5.18-1,.35-1.49.57a20.24,20.24,0,0,0,16.4,37h0A20.21,20.21,0,0,0,187.28,75.45Z"/><circle class="cls-8" cx="174.37" cy="25.92" r="8.28"/><circle class="cls-8" cx="176.54" cy="51.25" r="6.25"/><path class="cls-9" d="M247,436.26H95.94a21.69,21.69,0,0,1-21.51-18.91L46.26,199.49H296.72L268.55,417.35A21.69,21.69,0,0,1,247,436.26Z"/><path class="cls-10" d="M141.69,436.26H95.94a21.7,21.7,0,0,1-21.52-18.91L46.26,199.49H92l28.18,217.86A21.67,21.67,0,0,0,141.69,436.26Z"/><polygon class="cls-7" points="127.29 436.26 150.16 436.26 150.16 199.49 97.37 199.49 127.29 436.26"/><polygon class="cls-7" points="214.38 436.26 191.51 436.26 191.51 199.49 244.3 199.49 214.38 436.26"/><rect class="cls-11" x="24.35" y="173.98" width="291.21" height="36.74" rx="17.23"/><path class="cls-12" d="M86.91,205.34a18.35,18.35,0,0,0,13,5.38H42.72a18.37,18.37,0,0,1,0-36.74H99.9a18.37,18.37,0,0,0-13,31.36Z"/><path class="cls-5" d="M293,385.62a20.23,20.23,0,0,0-28.31-4.14,19.94,19.94,0,0,0-5.69,6.59,13.67,13.67,0,0,0-16.2,20.79s0,0,.05.07c-.45.28-.9.57-1.34.89a20.24,20.24,0,0,0,24.17,32.47l0,0a20.22,20.22,0,0,0,34.95-19.16c.27-.18.54-.34.8-.53A14.43,14.43,0,0,0,297,397.16,20.18,20.18,0,0,0,293,385.62Z"/><path class="cls-6" d="M299.56,438.89a20.19,20.19,0,0,1-33.82,3.37l0,0a20.24,20.24,0,0,1-24.17-32.47c.44-.33.9-.62,1.34-.9l-.05-.06a13.68,13.68,0,0,1,12-21.8,13.71,13.71,0,0,0,2.39,11.11l.05.06c-.44.28-.89.57-1.33.89a20.24,20.24,0,0,0,24.17,32.47l0,0A20.19,20.19,0,0,0,299.56,438.89Z"/><circle class="cls-6" cx="276.04" cy="393.43" r="8.28"/><circle class="cls-6" cx="283.75" cy="417.66" r="6.25"/><path class="cls-7" d="M242.48,399.11A20.2,20.2,0,0,0,208.77,394a13.67,13.67,0,0,0-20.39,16.7l0,.07c-.5.18-1,.36-1.5.58a20.24,20.24,0,0,0,16.4,37h0a20.23,20.23,0,0,0,38.33-11c.3-.11.6-.21.89-.34a14.43,14.43,0,0,0,1.25-25.77A20.06,20.06,0,0,0,242.48,399.11Z"/><path class="cls-8" d="M237.1,452.51a20.2,20.2,0,0,1-33.74-4.19l0,0a20.24,20.24,0,1,1-16.41-37c.5-.22,1-.4,1.5-.58l0-.07a13.67,13.67,0,0,1,16.49-18.62,13.64,13.64,0,0,0-.12,11.36l0,.07c-.5.18-1,.36-1.49.58a20.24,20.24,0,0,0,16.4,37h0A20.22,20.22,0,0,0,237.1,452.51Z"/><circle class="cls-8" cx="224.19" cy="402.97" r="8.28"/><circle class="cls-8" cx="226.37" cy="428.3" r="6.25"/><rect class="cls-13" x="365.48" y="53.63" width="15.88" height="232.91" rx="7.45"/><path class="cls-14" d="M377.39,285.47a7.77,7.77,0,0,1-4,1.08,7.94,7.94,0,0,1-7.94-7.94v-217a7.93,7.93,0,0,1,11.91-6.87,7.91,7.91,0,0,0-4,6.87v217A7.89,7.89,0,0,0,377.39,285.47Z"/><path class="cls-15" d="M431.41,421.37H360c-5.85,0-10.7-3.72-11.07-8.5l-16-205H458.5l-16,205C442.12,417.65,437.27,421.37,431.41,421.37Z"/><path class="cls-16" d="M389.35,421.37H359.76c-5.86,0-10.71-3.72-11.09-8.5l-16-205h29.6l16,205C378.65,417.65,383.5,421.37,389.35,421.37Z"/><rect class="cls-7" x="322.16" y="190.64" width="145.96" height="17.23" rx="8.08"/><path class="cls-17" d="M359.38,205.35a8.66,8.66,0,0,0,6.1,2.52h-34.7a8.62,8.62,0,1,1,0-17.23h34.7a8.62,8.62,0,0,0-6.1,14.71Z"/><path class="cls-18" d="M360,421.37h71.83a0,0,0,0,1,0,0v.43a6.53,6.53,0,0,1-6.53,6.53H366.52A6.53,6.53,0,0,1,360,421.8v-.43A0,0,0,0,1,360,421.37Z"/><circle class="cls-9" cx="396.17" cy="294.71" r="35.15"/><path class="cls-19" d="M431.82,294.71A35.16,35.16,0,0,1,407.9,328c5.56-19.31-11.24-33.32-11.24-33.32-10.58-10.58-12.12-22.92-10.41-33.59a35.18,35.18,0,0,1,45.57,33.59Z"/></g></svg>