<?xml version="1.0" encoding="utf-8"?>
<!-- Generator: Adobe Illustrator 24.0.0, SVG Export Plug-In . SVG Version: 6.00 Build 0)  -->
<svg version="1.1" id="Layer_1" xmlns="http://www.w3.org/2000/svg" xmlns:xlink="http://www.w3.org/1999/xlink" x="0px" y="0px"
	 viewBox="0 0 2000 2000" style="enable-background:new 0 0 2000 2000;" xml:space="preserve">
<style type="text/css">
	.st0{fill:#fe8641;}
</style>
<g>
	<path class="st0" d="M1190.4,872.8c8.1-13.4,17.3-24.5,29.7-32.5c34.3-22.3,72.6-16.7,99.1,14.4c16.9,19.8,24.1,43.3,27.7,68.5
		c6,42.5,3.1,84.8-0.6,127.2c-2.4,26.8-4.5,53.7-5.6,80.6c-0.9,22-9.5,33.8-31.2,37.9c-13.9,2.6-27.5,1.6-40-6.2
		c-10.7-6.7-16.9-16.1-16.2-28.9c1.3-24.9,2.6-49.9,4.9-74.8c3.4-37.1,6.4-74.3,4.4-111.6c-0.4-6.3-1.4-12.5-2.1-18.8
		c-0.6-0.1-1.1-0.1-1.7-0.2c-2.6,8.6-6,17.1-7.8,25.9c-5.6,26.8-11.6,53.5-15.4,80.6c-2.7,19.4-16.3,32.7-34.9,35.6
		c-7,1.1-14.5,1.1-21.5-0.2c-15.4-2.8-26.8-11.8-30.7-27.2c-5.2-20.3-9.1-41-13.5-61.6c-2.7-12.6-5-25.3-7.5-37.9
		c-0.7,0-1.4,0-2.1,0.1c-1,13-2.2,26.1-2.8,39.1c-2.4,47.4,2.1,94.6,5,141.8c0.1,0.9,0.1,1.8,0.2,2.6c2.4,28.4-15.6,46.9-44.5,45.8
		c-10.1-0.4-19.4-3-27.7-9c-8.6-6.3-13.8-14.4-14.4-25.3c-3.2-53.2-8.4-106.2-6-159.6c1.3-29.6,4.1-59,15.4-86.9
		c12.7-31.3,34.8-50.1,68.8-54.7c26.4-3.5,47.2,5.8,63.7,26C1185.4,866.3,1187.6,869.2,1190.4,872.8z"/>
	<path class="st0" d="M1510.7,1098.9c-15.9-0.3-31.8-1.9-47.6,1.8c-1.7,0.4-3.8,3.5-4,5.5c-0.7,8.5-0.9,17.1-1,25.6
		c-0.1,21.5-9.9,34-31,38.4c-13,2.7-25.8,1.9-37.8-4.3c-13.8-7.1-19.3-18.5-18.9-33.9c1.3-44.4,7.9-88.1,17.7-131.4
		c8-35,16.3-70,31.1-103c8-17.7,17.3-34.6,31.4-48.2c27.5-26.7,75.5-30.7,103.4,9.5c13.6,19.6,19.6,42.2,22.8,65.2
		c7.7,55.1,14.3,110.3,21.3,165.6c1.5,11.7,2.8,23.5,4.1,35.3c3.5,32.7-18.7,53-51.3,46.6c-6.2-1.2-12.3-3.4-18-6
		c-8.6-4-14.1-10.8-15.5-20.6C1515.4,1130,1513.1,1114.9,1510.7,1098.9z M1493.7,946.4c-0.9,0-1.7-0.1-2.6-0.1
		c-7.1,27.1-14.2,54.2-21.4,81.8c12.4,0,23.2,0,35.1,0C1501,1000.5,1497.4,973.4,1493.7,946.4z"/>
	<path class="st0" d="M205.1,1015.6c1.1-47.8,5.2-84.7,20.3-119.6c7-16.2,16-31.3,28.7-43.7c26.1-25.3,74.2-30,106.6-10.6
		c27.5,16.4,46.3,40.3,57.1,70c20.5,56.3,24.9,113.7,7.4,171.6c-10.5,34.7-29.8,62.8-63.6,79c-42.1,20.2-91.8,11.3-119.7-21.7
		c-16.5-19.5-24.9-42.8-29.3-67.4C208.6,1050.8,206.7,1028.1,205.1,1015.6z M317.9,903.2c-1.1,0.1-2.3,0.1-3.4,0.2
		c-4.2,10.7-9.1,21.2-12.5,32.1c-11.3,36.9-11.3,74.7-6.2,112.6c2.3,17.1,5.5,34.2,15.5,49c4.5,6.7,6.8,7.5,11.8,0.9
		c6.1-8.1,12-17,15.2-26.5c16.8-50.6,13.5-100.5-8.4-149.1C326.8,915.6,321.9,909.6,317.9,903.2z"/>
	<path class="st0" d="M459.4,1003.9c1.3-38.3,5.3-77,22.6-113c4.3-8.8,9.6-17.2,15-25.4c27.9-42.8,89.7-42.2,119.4-23
		c28.8,18.5,47.8,44.3,58.2,76.3c18.5,56.9,22.1,114.3,2.2,171.7c-12.4,35.8-34.7,62.7-71.3,75.9c-47.3,17-103.3,2.2-127.2-54.8
		C464,1077.5,460.3,1041.4,459.4,1003.9z M572.4,903.2c-0.8,0.2-1.7,0.4-2.5,0.5c-1.6,2.8-3.6,5.4-4.7,8.4
		c-4.2,11.3-9,22.4-11.8,34.1c-8.3,33.8-8.1,68.1-3.2,102.4c2.4,17.1,5.6,34.2,15.7,49c4.2,6.1,5.6,6.3,11.1,1.1
		c8.7-8.3,13.4-18.9,16.8-30.1c14.8-48.4,12-96-7.9-142.5C582.2,918.1,576.9,910.8,572.4,903.2z"/>
	<path class="st0" d="M717.8,1011.2c0-41,0.1-82-0.1-123c0-3.7-1.1-7.8-2.8-11.1c-7.1-14-4.2-30.2,9.2-38.3
		c8.4-5.1,18.3-8.9,28-10.2c31.2-4.3,61.9-1.3,90.4,12.9c37.5,18.7,58.3,51,65.6,91c11.5,63.2-2,120.6-47.9,167.5
		c-22,22.5-45.8,43.4-69.8,63.9c-16.7,14.4-47.4,11.6-63-3.9c-7.1-7.1-9.6-15.9-9.6-25.7C717.8,1093.2,717.8,1052.2,717.8,1011.2z
		 M806.8,908.1c-0.5,0.4-1,0.7-1.5,1.1c0,42.9,0,85.8,0,128.8c1.4-0.2,1.7-0.7,2-1.3c20.9-36.9,22.5-75.3,8.4-114.6
		C813.9,917,809.8,912.7,806.8,908.1z"/>
	<path class="st0" d="M1890.4,901.4c-8,11.1-15.5,38.9-14.4,53.8c7.6,0,15.2,0,22.8,0c10.6,0,20.4,2.8,29.1,8.9
		c19.4,13.6,19.4,38.2,0,51.8c-8.5,6-17.9,9-28.3,9.1c-6.6,0-13.2,0.3-19.7,0.1c-4.2-0.1-6.1,1.2-5.7,5.6c1.9,18.3,2.5,36.8,6,54.8
		c4.5,22.7,4.2,18,21.8,13.4c16.9-4.4,32.2-2.7,46.2,7.7c17.9,13.3,18.2,36.6,0,49.6c-7.1,5-15.9,8.3-24.4,10.7
		c-19.5,5.4-39.6,7.7-59.9,5.2c-35.2-4.3-57-25.2-66.5-58.1c-5.2-17.9-7.8-36.9-9-55.6c-1.8-30.1-2.8-60.5-1.4-90.6
		c1-21.7,4.2-43.8,10-64.7c15.9-57.3,67.3-84.3,124.2-67c7.3,2.2,14.5,5.1,21.3,8.6c11.7,5.9,18.4,15.8,18.7,28.9
		c0.3,12.5-6.6,21.7-17.1,27.8c-14.8,8.6-30.4,9-46.2,3.2C1895.4,903.6,1893,902.5,1890.4,901.4z"/>
	<path class="st0" d="M1723.2,900.1c0,19.9-0.3,39.1,0.1,58.4c0.8,45.6,1.9,91.2,2.9,136.7c0.3,12.7,0.4,25.4,0.5,38.1
		c0.1,21.5-9.9,34-30.9,38.3c-12.7,2.6-25.3,1.9-37.2-4.1c-12.7-6.4-19.1-16.5-19.3-31c-0.8-55.9-1.9-111.8-3-167.7
		c-0.4-20.4-1-40.8-1.2-61.1c-0.1-5-1.4-6.7-6.7-6.8c-6.5-0.2-13.1-1.3-19.3-3.3c-15.8-5.3-25.5-18.8-24.4-32.8
		c1.2-15,14.8-29.6,30.6-31.8c46.3-6.7,92.5-8,138.7,1.1c10.6,2.1,20.2,6,27.4,14.3c13,15.1,10.6,34.8-5.8,46.2
		c-13,9-27.5,10.8-42.8,7.5C1729.5,901.3,1726.2,900.7,1723.2,900.1z"/>
	<path class="st0" d="M129.1,948.6c6.7,0,12.8,0,18.9,0c12.3,0,23.3,3.6,32.8,11.5c14.7,12.3,15.5,32.4,1.7,45.6
		c-8.8,8.4-19.3,12.8-31.5,12.9c-8.1,0.1-16.1,0-23.9,0c0,15.6-0.4,30.4,0.1,45.2c0.9,23.4,2.8,46.8,3.4,70.3
		c0.6,20.9-9.4,33.2-30,37.5c-16.3,3.4-31.9,1.7-45.5-9c-7.1-5.6-10.9-13.1-11.4-22.1c-1.8-36.3-4-72.7-5.1-109
		C37.5,989.9,39,948.5,49,907.9c5.3-21.6,14.5-41.4,30.7-57.2c21.8-21.2,48.5-26.2,77.4-21.3c10.5,1.8,20.9,5.1,30.9,8.9
		c13.7,5.2,21.8,15.8,22.1,30.6c0.3,14.5-8.5,24-21,29.9c-12.9,6.1-26.3,6.6-39.7,1.9c-4-1.4-6.5-1.3-8.4,2.9
		C134.4,917.7,131.3,932.6,129.1,948.6z"/>
</g>
</svg>
