<?xml version="1.0" encoding="utf-8"?>
<!-- Generator: Adobe Illustrator 24.0.0, SVG Export Plug-In . SVG Version: 6.00 Build 0)  -->
<svg version="1.1" id="Layer_1" xmlns="http://www.w3.org/2000/svg" xmlns:xlink="http://www.w3.org/1999/xlink" x="0px" y="0px"
	 viewBox="0 0 2000 2000" style="enable-background:new 0 0 2000 2000;" xml:space="preserve">
<style type="text/css">
	.st0{fill:#FE8641;}
	.st1{fill:#FFFFFF;}
</style>
<g>
	<rect class="st0" width="2000" height="2000"/>
	<path class="st1" d="M631.83,1204.27c-0.16-9.41,3.59-17.81,9.78-25.15c25.33-30.06,50.75-60.04,76.13-90.06
		c7.53-8.9,14.96-17.9,22.64-26.66c2.39-2.73,2.55-4.75-0.15-7.13c-2.99-2.63-5.86-5.39-8.82-8.04
		c-10.52-9.44-20.85-19.11-31.63-28.26c-91.1-77.31-182.27-154.52-273.43-231.76c-33.69-28.55-67.33-57.16-101.07-85.64
		c-24.43-20.62-49.07-41.01-73.47-61.67c-8.39-7.1-16.67-14.37-24.47-22.1c-16.94-16.78-18.03-42.15-2.93-59.15
		c15.19-17.11,40.88-18.96,59.55-3.91c12.7,10.24,25.02,20.96,37.47,31.51c51.23,43.41,102.45,86.84,153.68,130.25
		c62.41,52.9,124.83,105.79,187.25,158.68c44.62,37.81,89.26,75.6,133.81,113.5c3.05,2.59,4.79,2.33,7.26-0.6
		c31.45-37.32,62.97-74.58,94.5-111.82c2.37-2.8,4.85-5.5,7.41-8.12c15.23-15.58,36.16-16.88,53.1-3.03
		c13.67,11.18,27.16,22.59,40.62,34.02c33.65,28.59,67.21,57.29,100.87,85.86c53.22,45.18,106.5,90.31,159.76,135.45
		c7.63,6.46,15.26,12.92,22.93,19.34c19.44,16.28,21.78,38.13,5.54,57.62c-22.71,27.26-45.82,54.18-68.73,81.27
		c-39.14,46.29-78.21,92.62-117.39,138.88c-24.76,29.23-49.64,58.36-74.51,87.5c-16.15,18.92-38.28,20.56-57.3,4.44
		c-73.47-62.27-146.97-124.52-220.46-186.76c-34.46-29.18-68.95-58.32-103.38-87.54C637.02,1227.24,631.64,1217.27,631.83,1204.27z
		 M1099.98,1280.74c0.49-18.22-6.49-26.6-15.3-34.07c-51.88-43.92-103.71-87.88-155.58-131.8c-18.82-15.93-37.4-32.15-56.65-47.55
		c-14.48-11.59-32.42-9.39-44.27,4.19c-11.68,13.39-10.76,31.47,2.29,44.51c1.88,1.88,3.87,3.66,5.91,5.39
		c60.99,51.72,121.97,103.45,183.01,155.1c10.42,8.82,20.68,17.91,31.78,25.81c10.04,7.15,21.37,7.11,32.13,0.87
		C1094.02,1296.99,1099.63,1287.42,1099.98,1280.74z M1191.21,1156.1c-0.11-12.04-5.46-20.46-13.73-27.46
		c-61.27-51.91-122.51-103.86-183.79-155.76c-8.39-7.1-16.54-14.58-25.53-20.84c-13.85-9.64-31.02-6.91-41.35,5.61
		c-9.9,12.01-8.83,29.57,2.78,41.35c4.32,4.38,9.08,8.33,13.78,12.32c55.91,47.41,111.82,94.8,167.78,142.15
		c10.68,9.03,21.17,18.36,32.47,26.56c9.75,7.08,20.87,7.53,31.68,1.7C1185.75,1176.1,1190.78,1167.01,1191.21,1156.1z
		 M756.25,1177.87c-9.67,0.01-16.6,2.52-22.33,7.86c-13.02,12.15-13.4,31.6-0.5,44.63c6.19,6.26,13.19,11.73,19.92,17.43
		c62.12,52.7,124.24,105.42,186.48,157.99c4.26,3.6,9.14,6.89,14.29,8.97c19.39,7.84,40.54-6.58,41.01-27.47
		c0.29-12.81-6.75-21.47-15.84-29.16c-51.88-43.91-103.73-87.86-155.59-131.8c-15-12.71-30-25.41-45-38.12
		C771.67,1182.26,764.03,1177.75,756.25,1177.87z"/>
	<path class="st1" d="M1562.22,799.79c-29.66-0.05-58.32-5.43-85.84-16.54c-3.85-1.55-5.83-1.17-8.03,2.49
		c-22.78,37.83-45.71,75.57-68.61,113.33c-20.4,33.63-40.69,67.32-61.25,100.84c-12.43,20.27-31.63,25.28-52.39,13.38
		c-68.53-39.29-136.94-78.79-205.36-118.27C995.87,846.04,911.03,797,826.18,747.97c-5.05-2.92-10.07-5.9-14.98-9.05
		c-15.73-10.09-21.51-27.83-13.9-44.91c4.25-9.56,9.78-18.56,14.82-27.77c32.86-60.09,65.74-120.17,98.62-180.26
		c3.12-5.7,6.13-11.47,9.48-17.04c2.04-3.39,1.46-5.39-1.67-7.85c-31.38-24.75-55.41-55.38-70.24-92.49
		c-30.35-75.95-24.46-149.67,20.93-217.57C920.21,74.77,993.8,40.49,1085.11,47.89c59.01,4.78,108.59,31.16,148.96,74.55
		c2.64,2.83,4.45,4.37,8.66,1.87c81.16-48.16,163.03-48.38,244.75-1.98c52.76,29.96,88.63,74.39,107.49,132.19
		c8.13,24.93,11.43,50.64,10.76,76.86c-0.19,7.53-0.2,7.47,6.87,9.2c68.08,16.68,121.1,54.48,153.36,116.83
		c44.68,86.37,37.59,170.7-19.09,249.64c-32.95,45.9-78.64,74.27-133.65,86.82c-16.63,3.79-33.86,4.91-50.82,7.25
		C1562.34,800.67,1562.28,800.23,1562.22,799.79z M1016.27,443.93c-1.37,2.47-2.2,4.07-3.13,5.61
		c-10.36,17.1-21.19,33.95-30.99,51.36c-11.27,20.02-21.46,40.65-32.45,60.83c-23.19,42.59-46.55,85.09-69.99,127.53
		c-2.38,4.32-1.93,6.4,2.49,8.95c135.42,78.07,270.77,156.27,406.12,234.46c6.18,3.57,6.26,3.64,9.92-2.39
		c23.44-38.6,46.73-77.29,70.27-115.83c13.63-22.31,28.01-44.18,41.37-66.65c10.21-17.18,19.34-35,28.99-52.52
		c0.91-1.65,2.1-3.14,3.48-5.19c30.79,30.59,67.05,48.68,109.62,52.67c42.74,4,81.84-6.77,117.26-31.23
		c58.05-40.09,86.03-114.93,68.69-185.32c-8.62-34.99-26.44-64.79-53.66-88.32c-44.12-38.14-95.4-51.13-152.32-40.67
		c32.74-90.93,14.18-166.48-65.83-223.22c-27.97-19.83-60.4-28.97-94.74-28.89c-61.16,0.13-109.53,26.17-146.41,75.92
		c-14.93-43.46-41.09-76.49-80.04-98.73c-38.96-22.24-80.59-28.65-124.5-19.16c-70.84,15.32-125.92,74.89-135.44,146.62
		c-5.85,44.08,3.32,84.87,28.22,121.81C938.06,408.5,972.74,431.88,1016.27,443.93z"/>
	<path class="st1" d="M1517.47,1250.82c-17.33,0-34.67,0.15-51.99-0.11c-4.22-0.06-5.65,1.37-6.53,5.34
		c-20.31,91.21-40.74,182.4-61.19,273.59c-8.96,39.94-35.31,64.56-71.44,80.25c-16.6,7.21-34.42,9.41-52.27,10.01
		c-69.27,2.34-138.55,5.26-207.84,6.08c-70.63,0.83-141.3,0.07-211.93-1.19c-46.63-0.83-93.25-3.14-139.81-5.96
		c-41.53-2.52-74.79-21.01-98.61-55.68c-7.04-10.24-11-21.54-13.67-33.53c-20.32-91.04-40.78-182.05-61.01-273.11
		c-1-4.52-2.68-5.82-7.18-5.79c-28.83,0.19-57.69-0.68-86.49,0.24c-86.65,2.77-142.04-79.29-120.62-157.85
		c13.57-49.75,46.13-80.64,97.83-89.68c3.92-0.69,7.95-0.97,11.94-1.03c28.47-0.47,56.95-0.87,85.42-1.2
		c17.18-0.2,31.31,5.52,38.29,22.32c3.03,7.3,4.39,15.33,6.12,23.12c18.68,83.89,37.23,167.81,55.93,251.7
		c16.16,72.51,32.51,144.98,48.66,217.5c1.95,8.73,7.55,14.69,13.91,20.15c9.89,8.5,21.78,12.16,34.51,12.9
		c30.6,1.78,61.2,3.9,91.84,4.7c62.63,1.63,125.28,2.9,187.93,3.47c37.32,0.34,74.65-0.66,111.97-1.52
		c42.31-0.98,84.62-2.26,126.91-3.84c16.46-0.62,32.92-2.11,49.31-3.77c11.58-1.18,21.69-6.23,30.22-14.25
		c6.09-5.72,10.08-12.36,11.96-20.79c29.51-132.51,59.26-264.97,88.88-397.46c5.99-26.82,11.65-53.71,17.42-80.57
		c2.04-9.5,5.95-17.77,13.18-24.68c8.15-7.79,18.26-8.88,28.33-8.84c30.97,0.11,62.08-0.73,92.87,1.89
		c45.42,3.86,77.16,29.18,95.98,70.1c24.05,52.27,9.55,115.34-33.97,151.24c-21.11,17.41-45.58,25.85-72.86,26.16
		c-14,0.16-28,0.03-42,0.03C1517.47,1250.79,1517.47,1250.81,1517.47,1250.82z M530.98,1212.51c-0.47-2.59-0.67-4.06-1-5.5
		c-6.18-27.12-12.42-54.23-18.56-81.36c-6.22-27.45-12.35-54.91-18.53-82.37c-0.61-2.71-0.7-5.46-4.95-5.32
		c-15.49,0.5-30.99,0.42-46.48,1.03c-11.82,0.47-22.99,3.86-33.34,9.64c-34.59,19.3-51.63,60.45-41.52,100.04
		c10.09,39.48,42.1,64.46,83.24,64.54c23,0.05,45.99-0.46,68.99-0.7C522.65,1212.47,526.44,1212.51,530.98,1212.51z M1469,1211.65
		c1.37,0.28,2.32,0.63,3.27,0.64c28.16,0.29,56.32,0.77,84.48,0.71c12.7-0.02,24.83-3.53,35.71-10.1
		c31.79-19.21,45.53-48.08,43.39-84.58c-2.56-43.61-36.92-77.39-80.42-79.51c-13.81-0.67-27.66-0.35-41.48-0.85
		c-4.32-0.16-6.01,1.18-6.96,5.41c-9.52,42.58-19.27,85.11-28.92,127.66C1475.01,1184.49,1472.05,1197.97,1469,1211.65z"/>
	<path class="st1" d="M1145.17,1697.47c6.17-10.2,13.12-18.59,22.56-24.72c26.08-16.95,55.13-12.72,75.29,10.91
		c12.82,15.03,18.34,32.91,21.03,52.02c4.54,32.26,2.34,64.44-0.49,96.66c-1.79,20.39-3.4,40.81-4.25,61.26
		c-0.69,16.71-7.21,25.66-23.72,28.78c-10.55,1.99-20.92,1.22-30.37-4.7c-8.1-5.07-12.82-12.24-12.31-21.95
		c1.01-18.94,1.98-37.9,3.69-56.79c2.56-28.21,4.89-56.41,3.31-84.77c-0.27-4.78-1.03-9.53-1.56-14.29
		c-0.43-0.05-0.86-0.1-1.29-0.15c-2.01,6.55-4.54,12.99-5.92,19.67c-4.23,20.35-8.84,40.67-11.69,61.23
		c-2.05,14.74-12.37,24.82-26.5,27.04c-5.33,0.84-11.05,0.81-16.35-0.17c-11.7-2.16-20.33-8.93-23.33-20.68
		c-3.94-15.45-6.93-31.15-10.22-46.76c-2.02-9.58-3.82-19.2-5.73-28.8c-0.53,0.01-1.06,0.03-1.59,0.04
		c-0.73,9.9-1.65,19.8-2.16,29.71c-1.85,36.02,1.62,71.87,3.83,107.76c0.04,0.66,0.09,1.33,0.15,1.99
		c1.83,21.56-11.87,35.66-33.79,34.76c-7.65-0.31-14.77-2.31-21.05-6.86c-6.55-4.76-10.47-10.95-10.97-19.24
		c-2.4-40.38-6.35-80.71-4.55-121.24c1-22.49,3.09-44.81,11.68-66.04c9.63-23.8,26.46-38.09,52.25-41.55
		c20.03-2.69,35.87,4.38,48.42,19.75C1141.34,1692.5,1143.02,1694.72,1145.17,1697.47z"/>
	<path class="st1" d="M1388.49,1869.18c-12.08-0.19-24.19-1.46-36.15,1.4c-1.31,0.31-2.89,2.67-3.02,4.19
		c-0.53,6.46-0.71,12.97-0.75,19.46c-0.11,16.36-7.55,25.83-23.57,29.2c-9.85,2.07-19.57,1.48-28.7-3.24
		c-10.45-5.4-14.7-14.09-14.36-25.79c0.97-33.76,6.02-66.95,13.47-99.8c6.04-26.62,12.36-53.18,23.64-78.22
		c6.05-13.43,13.13-26.26,23.83-36.63c20.9-20.27,57.32-23.34,78.54,7.24c10.32,14.86,14.86,32.07,17.31,49.57
		c5.87,41.86,10.89,83.83,16.2,125.77c1.13,8.92,2.15,17.85,3.1,26.79c2.65,24.86-14.19,40.27-38.95,35.43
		c-4.68-0.91-9.32-2.58-13.66-4.58c-6.56-3.03-10.74-8.17-11.78-15.63C1392.06,1892.82,1390.29,1881.33,1388.49,1869.18z
		 M1375.59,1753.36c-0.66-0.02-1.31-0.05-1.97-0.07c-5.39,20.6-10.78,41.2-16.27,62.16c9.44,0,17.64,0,26.67,0
		C1381.16,1794.42,1378.38,1773.89,1375.59,1753.36z"/>
	<path class="st1" d="M396.64,1805.95c0.85-36.32,3.96-64.35,15.39-90.83c5.31-12.32,12.12-23.8,21.81-33.21
		c19.8-19.21,56.4-22.76,80.99-8.07c20.87,12.47,35.15,30.58,43.37,53.15c15.58,42.78,18.88,86.35,5.61,130.37
		c-7.95,26.37-22.62,47.68-48.3,60.01c-32,15.36-69.77,8.58-90.96-16.52c-12.52-14.83-18.93-32.52-22.24-51.19
		C399.31,1832.68,397.83,1815.41,396.64,1805.95z M482.33,1720.56c-0.85,0.06-1.71,0.11-2.56,0.17c-3.19,8.12-6.93,16.07-9.48,24.38
		c-8.59,28.07-8.58,56.75-4.69,85.52c1.76,13.02,4.17,26,11.75,37.26c3.45,5.12,5.17,5.72,8.94,0.67
		c4.6-6.17,9.14-12.91,11.54-20.12c12.77-38.47,10.23-76.37-6.36-113.26C489.13,1729.98,485.4,1725.42,482.33,1720.56z"/>
	<path class="st1" d="M589.82,1797.04c0.96-29.08,4-58.48,17.15-85.81c3.23-6.72,7.33-13.05,11.41-19.32
		c21.21-32.53,68.13-32.05,90.72-17.48c21.85,14.09,36.31,33.67,44.21,58c14.05,43.22,16.78,86.83,1.69,130.44
		c-9.4,27.17-26.39,47.67-54.13,57.66c-35.9,12.93-78.5,1.64-96.64-41.63C593.34,1852.96,590.5,1825.55,589.82,1797.04z
		 M675.64,1720.52c-0.64,0.13-1.29,0.27-1.93,0.4c-1.21,2.13-2.75,4.14-3.58,6.4c-3.16,8.57-6.81,17.04-8.97,25.87
		c-6.28,25.71-6.13,51.77-2.45,77.82c1.84,13.01,4.25,25.98,11.93,37.19c3.17,4.63,4.25,4.81,8.4,0.87
		c6.62-6.27,10.19-14.38,12.77-22.85c11.21-36.78,9.09-72.94-6.02-108.23C683.15,1731.85,679.06,1726.33,675.64,1720.52z"/>
	<path class="st1" d="M786.16,1802.55c0-31.16,0.05-62.32-0.09-93.48c-0.01-2.83-0.81-5.9-2.09-8.43
		c-5.41-10.61-3.21-22.92,6.98-29.08c6.37-3.85,13.93-6.73,21.28-7.74c23.69-3.27,47.05-1.01,68.7,9.78
		c28.52,14.21,44.27,38.74,49.82,69.15c8.77,48.05-1.54,91.64-36.4,127.26c-16.74,17.11-34.83,32.95-53.01,48.56
		c-12.71,10.92-36.01,8.82-47.87-2.98c-5.42-5.4-7.32-12.11-7.31-19.56C786.17,1864.88,786.16,1833.71,786.16,1802.55z
		 M853.72,1724.27c-0.37,0.27-0.74,0.53-1.11,0.8c0,32.61,0,65.21,0,97.82c1.04-0.12,1.3-0.55,1.55-0.98
		c15.9-28.02,17.12-57.18,6.38-87.08C859.17,1730.99,856.04,1727.78,853.72,1724.27z"/>
	<path class="st1" d="M1676.93,1719.13c-6.1,8.41-11.75,29.58-10.96,40.87c5.74,0,11.53-0.01,17.32,0
		c8.05,0.02,15.46,2.14,22.09,6.77c14.77,10.32,14.77,28.99,0.03,39.35c-6.46,4.54-13.62,6.86-21.53,6.88
		c-5,0.02-10,0.26-14.99,0.11c-3.2-0.1-4.66,0.9-4.3,4.27c1.48,13.89,1.88,27.99,4.56,41.64c3.39,17.25,3.18,13.69,16.58,10.16
		c12.82-3.38,24.47-2.07,35.08,5.82c13.63,10.13,13.83,27.84-0.02,37.65c-5.41,3.83-12.07,6.34-18.53,8.14
		c-14.85,4.14-30.08,5.86-45.5,3.98c-26.76-3.27-43.27-19.14-50.5-44.11c-3.94-13.62-5.96-28.06-6.81-42.24
		c-1.37-22.9-2.11-45.94-1.09-68.84c0.74-16.5,3.22-33.28,7.63-49.19c12.07-43.52,51.1-64.08,94.34-50.89
		c5.54,1.69,11.01,3.89,16.18,6.5c8.88,4.47,13.96,12.02,14.18,21.94c0.22,9.49-4.99,16.46-12.97,21.09
		c-11.22,6.51-23.06,6.85-35.12,2.45C1680.76,1720.81,1678.96,1719.97,1676.93,1719.13z"/>
	<path class="st1" d="M1549.91,1718.19c0,15.09-0.22,29.72,0.04,44.35c0.62,34.63,1.48,69.25,2.21,103.87
		c0.2,9.66,0.34,19.31,0.38,28.97c0.06,16.33-7.51,25.85-23.5,29.1c-9.67,1.96-19.25,1.44-28.26-3.12
		c-9.64-4.87-14.52-12.55-14.68-23.57c-0.63-42.46-1.48-84.91-2.28-127.37c-0.29-15.48-0.76-30.96-0.91-46.44
		c-0.04-3.81-1.05-5.06-5.1-5.16c-4.91-0.13-9.98-0.98-14.65-2.54c-12.03-4.01-19.4-14.32-18.56-24.95
		c0.9-11.37,11.21-22.45,23.28-24.19c35.15-5.07,70.29-6.08,105.37,0.8c8.06,1.58,15.31,4.53,20.8,10.9
		c9.87,11.45,8.07,26.46-4.44,35.09c-9.88,6.81-20.87,8.22-32.48,5.7C1554.69,1719.1,1552.25,1718.65,1549.91,1718.19z"/>
	<path class="st1" d="M338.87,1755c5.08,0,9.71-0.01,14.35,0c9.32,0.03,17.72,2.73,24.93,8.74c11.16,9.31,11.76,24.6,1.27,34.64
		c-6.65,6.36-14.64,9.71-23.91,9.77c-6.13,0.04-12.26,0.01-18.13,0.01c0,11.84-0.33,23.1,0.08,34.34
		c0.65,17.8,2.11,35.58,2.62,53.38c0.46,15.91-7.13,25.19-22.81,28.47c-12.37,2.58-24.24,1.32-34.59-6.8
		c-5.42-4.25-8.29-9.94-8.63-16.79c-1.36-27.61-3.07-55.2-3.85-82.83c-0.89-31.52,0.23-63,7.81-93.83
		c4.03-16.42,11.05-31.47,23.36-43.44c16.56-16.11,36.82-19.91,58.78-16.15c7.97,1.36,15.86,3.85,23.44,6.74
		c10.41,3.97,16.56,12.02,16.79,23.24c0.22,11.05-6.43,18.24-15.98,22.74c-9.78,4.61-19.96,5.01-30.14,1.42
		c-3.05-1.08-4.94-0.97-6.39,2.19C342.96,1731.54,340.54,1742.84,338.87,1755z"/>
	<path class="st1" d="M1279.07,862.63c-8.09-0.02-15.28-2.91-22.19-6.84c-43.47-24.68-87.12-49.05-130.39-74.08
		c-53.79-31.12-107.25-62.82-160.91-94.18c-10.84-6.33-19.25-14.51-21.38-27.38c-2.33-14.09,2.42-25.81,13.9-34.19
		c11.92-8.7,25.03-9.01,37.77-2.2c13.8,7.38,27.12,15.67,40.62,23.6c32.19,18.89,64.23,38.05,96.59,56.64
		c52.73,30.29,105.67,60.22,158.54,90.26c8.31,4.72,15.31,10.61,19.24,19.59C1320.93,836.8,1304.1,862.62,1279.07,862.63z"/>
</g>
</svg>
